<?xml version="1.0" encoding="UTF-8" standalone="no"?>
<!-- Created with Inkscape (http://www.inkscape.org/) -->

<svg
   xmlns:dc="http://purl.org/dc/elements/1.1/"
   xmlns:cc="http://creativecommons.org/ns#"
   xmlns:rdf="http://www.w3.org/1999/02/22-rdf-syntax-ns#"
   xmlns:svg="http://www.w3.org/2000/svg"
   xmlns="http://www.w3.org/2000/svg"
   xmlns:sodipodi="http://sodipodi.sourceforge.net/DTD/sodipodi-0.dtd"
   xmlns:inkscape="http://www.inkscape.org/namespaces/inkscape"
   width="205"
   height="59"
   viewBox="0 0 54.239582 15.610417"
   version="1.1"
   id="svg8"
   sodipodi:docname="logo_branco.svg"
   inkscape:export-filename="/home/aluno/Imagens/logo.png"
   inkscape:export-xdpi="96"
   inkscape:export-ydpi="96"
   inkscape:version="0.92.5 (2060ec1f9f, 2020-04-08)">
  <defs
     id="defs2">
    <clipPath
       clipPathUnits="userSpaceOnUse"
       id="clipPath3805">
      <g
         inkscape:export-ydpi="96"
         inkscape:export-xdpi="96"
         inkscape:label="Clip"
         id="use3807">
        <path
           inkscape:connector-curvature="0"
           id="path4031"
           d="m 36.203492,294.44523 c -0.09651,-0.1227 -0.175479,-0.30806 -0.175479,-0.41192 0,-0.25475 0.311214,-0.635 0.519712,-0.635 0.211926,0 0.496288,0.14837 0.496288,0.25893 0,0.046 -0.09525,0.0212 -0.211666,-0.055 -0.196077,-0.12847 -0.227257,-0.12847 -0.423334,0 -0.46229,0.30291 -0.105891,1.15737 0.375323,0.89983 0.231316,-0.1238 0.222998,-0.32069 -0.01549,-0.36662 -0.137762,-0.0265 -0.114322,-0.0399 0.08467,-0.0482 0.239137,-0.01 0.275166,0.0158 0.275166,0.19716 0,0.41492 -0.638084,0.52588 -0.925188,0.16089 z m 1.208213,-0.41192 c 3.04e-4,-0.37253 0.01519,-0.5144 0.03308,-0.31526 0.01788,0.19914 0.01763,0.50394 -5.59e-4,0.67734 -0.01819,0.17339 -0.03283,0.0105 -0.03252,-0.36208 z m 0.48512,0.41192 c -0.197487,-0.25106 -0.211216,-0.34923 -0.09251,-0.66144 0.113296,-0.298 0.443588,-0.44278 0.721367,-0.31621 0.116416,0.053 0.211666,0.13623 0.211666,0.18487 0,0.0486 -0.09525,0.026 -0.211666,-0.0503 -0.196077,-0.12847 -0.227257,-0.12847 -0.423334,0 -0.449908,0.2948 -0.150938,1.06043 0.361732,0.92636 0.249611,-0.0653 0.24826,-0.34497 -0.0019,-0.39315 -0.137762,-0.0265 -0.114322,-0.0399 0.08467,-0.0482 0.239138,-0.01 0.275167,0.0158 0.275167,0.19716 0,0.41492 -0.638084,0.52588 -0.925188,0.16089 z m 1.208212,-0.41192 c 3.05e-4,-0.37253 0.01519,-0.5144 0.03308,-0.31526 0.01788,0.19914 0.01763,0.50394 -5.59e-4,0.67734 -0.01819,0.17339 -0.03283,0.0105 -0.03252,-0.36208 z m 0.817643,0 v -0.635 h 0.376003 c 0.206802,0 0.39955,0.0381 0.42833,0.0847 0.0316,0.0511 -0.08379,0.0847 -0.291337,0.0847 -0.307862,0 -0.343663,0.0215 -0.343663,0.20655 0,0.17634 0.04645,0.21142 0.3175,0.23977 l 0.3175,0.0332 -0.3175,0.0142 c -0.278427,0.0125 -0.3175,0.0403 -0.3175,0.2259 0,0.1905 0.03387,0.21167 0.338667,0.21167 0.186266,0 0.338666,0.0381 0.338666,0.0847 0,0.0466 -0.1905,0.0847 -0.423333,0.0847 H 39.92268 Z m 1.538613,0.0141 c -0.01722,-0.78166 0.118275,-0.8482 0.325717,-0.15997 0.07184,0.23835 0.154036,0.45678 0.182658,0.4854 0.02862,0.0286 0.125858,-0.16942 0.216081,-0.44009 0.09022,-0.27067 0.198967,-0.49212 0.241653,-0.49212 0.04269,0 0.0888,0.27622 0.102487,0.61383 0.01564,0.38584 -0.008,0.61383 -0.0635,0.61383 -0.05037,0 -0.09125,-0.20937 -0.09506,-0.48683 l -0.0067,-0.48683 -0.172174,0.49424 c -0.0947,0.27183 -0.201305,0.46233 -0.236908,0.42333 -0.0356,-0.039 -0.136093,-0.28046 -0.223309,-0.53657 l -0.158573,-0.46567 -0.04889,0.55033 -0.04889,0.55034 z m 1.412889,0.0154 c 0.122924,-0.33302 0.256857,-0.60924 0.297629,-0.61384 0.04077,-0.005 0.180227,0.26787 0.309899,0.60548 0.129672,0.33761 0.207204,0.61383 0.172292,0.61383 -0.03491,0 -0.106874,-0.0953 -0.159917,-0.21166 -0.06607,-0.145 -0.164251,-0.21167 -0.311739,-0.21167 -0.147488,0 -0.245672,0.0667 -0.311739,0.21167 -0.05304,0.11641 -0.124225,0.21166 -0.158182,0.21166 -0.03396,0 0.03883,-0.27246 0.161757,-0.60547 z m 0.41176,-0.20301 c -0.09349,-0.30462 -0.14844,-0.28211 -0.268393,0.10998 -0.04954,0.16193 -0.02686,0.1905 0.151167,0.1905 0.200798,0 0.205639,-0.0124 0.117226,-0.30048 z m 0.801987,0.27932 c -0.01592,-0.54874 -0.02501,-0.5715 -0.22825,-0.5715 -0.116416,0 -0.211666,-0.0381 -0.211666,-0.0847 0,-0.0466 0.1905,-0.0847 0.423333,-0.0847 0.232833,0 0.423333,0.0381 0.423333,0.0847 0,0.0466 -0.07446,0.0847 -0.165464,0.0847 -0.144908,0 -0.169145,0.071 -0.195084,0.5715 l -0.02962,0.5715 z m 0.66075,-0.10584 v -0.635 h 0.381 c 0.20955,0 0.381,0.0381 0.381,0.0847 0,0.0466 -0.15505,0.0847 -0.344555,0.0847 -0.308888,0 -0.341754,0.0197 -0.3175,0.1905 0.02137,0.15048 0.0982,0.20131 0.365722,0.24198 l 0.338667,0.0515 -0.359834,0.012 c -0.324174,0.0108 -0.359833,0.033 -0.359833,0.22368 0,0.18998 0.0342,0.21167 0.33367,0.21167 0.183518,0 0.357217,0.0381 0.385997,0.0847 0.03225,0.0522 -0.11201,0.0847 -0.376003,0.0847 h -0.428331 z m 1.147801,0.44683 c -0.146655,-0.20938 -0.180556,-0.95703 -0.04713,-1.03949 0.05281,-0.0326 0.08467,0.13677 0.08467,0.4503 0,0.56187 0.151924,0.7982 0.409263,0.63665 0.101369,-0.0636 0.148164,-0.235 0.166277,-0.60892 0.03229,-0.66654 0.18646,-0.68176 0.18646,-0.0184 0,0.55549 -0.129215,0.76804 -0.466913,0.76804 -0.111541,0 -0.259414,-0.0837 -0.33262,-0.18817 z m 1.158949,0.0904 c -0.05798,-0.058 -0.102408,-0.16447 -0.09873,-0.23665 0.0045,-0.0886 0.02065,-0.0966 0.04971,-0.0244 0.07708,0.19134 0.351606,0.28836 0.53627,0.18953 0.258607,-0.1384 0.205565,-0.24449 -0.211666,-0.42333 -0.390309,-0.16731 -0.487519,-0.36762 -0.2794,-0.57574 0.192632,-0.19263 0.6604,-0.0693 0.6604,0.17414 0,0.0399 -0.08209,0.015 -0.182424,-0.0552 -0.134195,-0.094 -0.22509,-0.10494 -0.343811,-0.0414 -0.222044,0.11883 -0.152546,0.25672 0.187013,0.37105 0.357534,0.12038 0.501015,0.32423 0.372584,0.52935 -0.112716,0.18002 -0.544606,0.23806 -0.689946,0.0927 z m -8.529749,-3.23983 c -1.164167,-0.38667 -2.180399,-0.73029 -2.258294,-0.76359 -0.248085,-0.10608 -0.408706,-0.58571 -0.408706,-1.22044 0,-0.32838 0.04546,-0.69683 0.10102,-0.81877 0.08229,-0.1806 0.07849,-0.23564 -0.02046,-0.29679 -0.158368,-0.0979 -0.04442,-0.20197 0.363939,-0.33247 0.310895,-0.0994 0.3175,-0.11024 0.3175,-0.52379 0,-0.51118 -0.09499,-0.70708 -0.425843,-0.87817 -0.32765,-0.16943 -0.31738,-0.26016 0.04291,-0.37906 0.281168,-0.0928 0.288789,-0.10573 0.169547,-0.28771 -0.211015,-0.32205 -0.323365,-1.06973 -0.218989,-1.45736 0.187682,-0.69699 0.120169,-0.6761 3.88611,-1.20243 l 3.380138,-0.47241 1.93823,0.57824 c 1.066026,0.31804 2.012144,0.61634 2.102486,0.6629 0.158168,0.0815 0.156598,0.0905 -0.04233,0.24147 -0.474841,0.36045 -0.511412,0.4288 -0.485425,0.90722 l 0.02483,0.45721 0.381,0.14036 c 0.433189,0.15958 0.457112,0.27438 0.07767,0.37271 -0.201979,0.0523 -0.248332,0.10069 -0.202881,0.21166 0.259118,0.63265 0.204273,1.41176 -0.132692,1.88498 -0.147334,0.20691 -0.154733,0.24852 -0.04419,0.24852 0.223072,0 0.147846,0.24185 -0.117984,0.37932 -0.276604,0.14304 -0.461927,0.59563 -0.412936,1.00846 0.0236,0.19886 0.09501,0.26615 0.402691,0.37947 0.205704,0.0758 0.387305,0.17773 0.40356,0.22659 0.02755,0.0828 -6.281932,1.65965 -6.577233,1.64375 -0.06985,-0.004 -1.0795,-0.3232 -2.243666,-0.70987 z m 2.310463,-0.61379 -0.02446,-0.73407 -2.149836,-0.698 c -1.182409,-0.3839 -2.20117,-0.6783 -2.263913,-0.65422 -0.287754,0.11042 -0.302636,1.23683 -0.01994,1.50897 0.09078,0.0874 4.139637,1.28511 4.415815,1.30627 0.03674,0.003 0.05579,-0.32521 0.04233,-0.72895 z m 2.996134,0.0528 2.512598,-0.62505 0.02941,-0.59567 c 0.01618,-0.32762 0.02782,-0.60271 0.02587,-0.61132 -0.008,-0.0351 -3.574668,0.73013 -3.796418,0.81453 -0.131966,0.0502 -0.267727,0.0741 -0.301691,0.0532 -0.03396,-0.021 -0.316517,0.0199 -0.627895,0.091 -0.551834,0.12588 -0.566161,0.13592 -0.566878,0.3974 -4.06e-4,0.14754 -0.02548,0.47429 -0.05571,0.72612 -0.05066,0.42196 -0.0423,0.45462 0.10657,0.41639 0.08885,-0.0228 1.292212,-0.32275 2.674141,-0.66653 z m -1.708264,-2.30382 v -0.69909 l -2.6035,-0.53186 c -1.431925,-0.29252 -2.627687,-0.53038 -2.65725,-0.52857 -0.05116,0.003 0.0053,1.11326 0.05987,1.17647 0.03838,0.0445 4.878864,1.26541 5.052709,1.27444 0.12977,0.007 0.148167,-0.0791 0.148167,-0.69139 z m 2.51097,0.10946 c 1.150187,-0.3243 2.148611,-0.647 2.218719,-0.71711 0.162621,-0.16262 0.233304,-1.06195 0.102651,-1.30608 -0.05333,-0.0996 -0.157801,-0.18118 -0.232157,-0.18118 -0.07436,0 -1.082666,0.30643 -2.240688,0.68095 l -2.105495,0.68094 v 0.71606 c 0,0.41051 0.03536,0.71605 0.08286,0.71605 0.04557,0 1.023922,-0.26533 2.17411,-0.58963 z m -3.442303,-2.35305 v -0.74134 l -2.08487,-0.67682 c -1.146677,-0.37226 -2.132653,-0.68825 -2.191056,-0.70222 -0.230311,-0.0551 -0.380741,0.23981 -0.380741,0.74639 0,0.8033 0.03061,0.82183 2.497667,1.51251 1.164166,0.32593 2.126191,0.59489 2.137833,0.59771 0.01164,0.003 0.02117,-0.32849 0.02117,-0.73623 z m 5.522208,-1.16365 c 0.02099,-0.32597 0.03172,-0.60216 0.02384,-0.61376 -0.01225,-0.018 -4.558309,0.90582 -5.101545,1.03674 -0.178667,0.0431 -0.1905,0.0898 -0.1905,0.75234 v 0.70644 l 2.615022,-0.64455 2.615022,-0.64455 z"
           style="fill:#000000;stroke-width:0.08466667" />
      </g>
    </clipPath>
  </defs>
  <sodipodi:namedview
     id="base"
     pagecolor="#ffffff"
     bordercolor="#666666"
     borderopacity="1.0"
     inkscape:pageopacity="0.0"
     inkscape:pageshadow="2"
     inkscape:zoom="1.979899"
     inkscape:cx="228.69164"
     inkscape:cy="52.960885"
     inkscape:document-units="mm"
     inkscape:current-layer="layer1"
     showgrid="false"
     units="px"
     inkscape:window-width="1294"
     inkscape:window-height="704"
     inkscape:window-x="72"
     inkscape:window-y="27"
     inkscape:window-maximized="1" />
  <metadata
     id="metadata5">
    <rdf:RDF>
      <cc:Work
         rdf:about="">
        <dc:format>image/svg+xml</dc:format>
        <dc:type
           rdf:resource="http://purl.org/dc/dcmitype/StillImage" />
        <dc:title></dc:title>
      </cc:Work>
    </rdf:RDF>
  </metadata>
  <g
     inkscape:label="Camada 1"
     inkscape:groupmode="layer"
     id="layer1"
     transform="translate(0,-281.38957)">
    <path
       style="fill:#000000;stroke-width:0.08466667"
       d="m 3.7378383,273.5293 c -0.4734527,-0.16256 -0.7743859,-0.31558 -0.8318711,-0.42299 -0.1195484,-0.22338 -0.015788,-0.83295 0.1417833,-0.83295 0.1668577,0 0.1494222,-0.29671 -0.027853,-0.47398 -0.081076,-0.0811 -0.1093834,-0.16009 -0.062906,-0.17558 0.046478,-0.0155 0.071462,-0.19217 0.05552,-0.39261 -0.018491,-0.23249 0.011949,-0.39772 0.084072,-0.45637 0.062182,-0.0506 0.6655074,-0.16684 1.340724,-0.25839 l 1.2276664,-0.16646 0.677334,0.2002 c 0.978393,0.28918 0.958907,0.27976 0.783166,0.37842 -0.08149,0.0457 -0.148166,0.16282 -0.148166,0.26014 0,0.0973 0.06668,0.22758 0.148166,0.28944 0.08149,0.0619 0.107141,0.11368 0.057,0.11516 -0.05275,0.002 -0.07553,0.10929 -0.05404,0.25566 0.02042,0.13913 0.0078,0.3201 -0.02811,0.40216 -0.03588,0.0821 -0.0585,0.17983 -0.05028,0.21725 0.0082,0.0374 -0.04288,0.12586 -0.113559,0.19654 -0.187234,0.18724 -0.157379,0.42614 0.06199,0.49604 0.141213,0.045 -0.105223,0.13469 -0.9525,0.34668 -0.62865,0.15728 -1.23825,0.2838 -1.354666,0.28115 -0.116417,-0.003 -0.5454787,-0.11943 -0.9534706,-0.25951 z m 0.9534706,-0.19248 v -0.29121 l -0.7408337,-0.22492 c -0.9633191,-0.29246 -0.9101667,-0.29466 -0.9101667,0.0377 v 0.28868 l 0.8043334,0.234 c 0.4423833,0.1287 0.813858,0.23692 0.8255,0.24049 0.01164,0.004 0.02117,-0.12455 0.02117,-0.28471 z m 0.931333,0.0798 c 0.973015,-0.23982 1.079341,-0.28832 1.122064,-0.51181 0.049,-0.25634 0.0269,-0.25659 -1.079731,-0.012 l -0.846666,0.18716 -0.0271,0.28159 c -0.02296,0.23855 -0.0035,0.27463 0.127,0.23612 0.08475,-0.025 0.401747,-0.1065 0.70443,-0.1811 z m -0.439136,-0.91045 -0.02653,-0.27516 -0.8889997,-0.18749 c -1.136873,-0.23977 -1.0987506,-0.24111 -1.0246349,0.036 0.056113,0.20982 0.1373253,0.24914 0.9451778,0.45763 0.4860848,0.12545 0.9147798,0.23171 0.9526548,0.23613 0.03787,0.004 0.05692,-0.11579 0.04233,-0.26713 z m 0.947136,0.0366 c 0.687391,-0.20069 0.808384,-0.26286 0.832196,-0.42764 0.06157,-0.42611 -0.01065,-0.43908 -0.86961,-0.15614 -0.80403,0.26484 -0.809253,0.26835 -0.809253,0.54443 0,0.15284 0.0095,0.27705 0.02117,0.27603 0.01164,-10e-4 0.383117,-0.10752 0.8255,-0.23668 z m -1.27,-0.88601 c 0,-0.27638 -0.0044,-0.27934 -0.8216277,-0.54852 -0.6223637,-0.205 -0.8376527,-0.24541 -0.8877036,-0.16662 -0.098977,0.1558 -0.082052,0.36854 0.037165,0.46715 0.089315,0.0739 1.4141913,0.50217 1.6086663,0.52003 0.03492,0.003 0.0635,-0.11921 0.0635,-0.27204 z m 1.227667,-0.006 c 0.718995,-0.18047 0.763571,-0.20474 0.789837,-0.43009 0.02475,-0.21232 0.0059,-0.23351 -0.169333,-0.19088 -0.108444,0.0264 -0.549596,0.11485 -0.980338,0.19661 l -0.783166,0.14864 v 0.28153 c 0,0.24974 0.02151,0.27611 0.1905,0.2335 0.104775,-0.0264 0.5334,-0.13411 0.9525,-0.23931 z"
       id="path4027"
       inkscape:connector-curvature="0" />
    <path
       inkscape:connector-curvature="0"
       id="path4029"
       d="m -6.819308,286.95959 c -0.4734527,-0.16256 -0.7743859,-0.31558 -0.8318711,-0.42299 -0.1195484,-0.22338 -0.015788,-0.83295 0.1417833,-0.83295 0.1668577,0 0.1494222,-0.29671 -0.027853,-0.47398 -0.081076,-0.0811 -0.1093834,-0.16009 -0.062906,-0.17558 0.046478,-0.0155 0.071462,-0.19217 0.05552,-0.39261 -0.018491,-0.23249 0.011949,-0.39772 0.084072,-0.45637 0.062182,-0.0506 0.6655074,-0.16684 1.340724,-0.25839 l 1.2276664,-0.16646 0.677334,0.2002 c 0.978393,0.28918 0.958907,0.27976 0.783166,0.37842 -0.08149,0.0457 -0.148166,0.16282 -0.148166,0.26014 0,0.0973 0.06668,0.22758 0.148166,0.28944 0.08149,0.0619 0.107141,0.11368 0.057,0.11516 -0.05275,0.002 -0.07553,0.10929 -0.05404,0.25566 0.02042,0.13913 0.0078,0.3201 -0.02811,0.40216 -0.03588,0.0821 -0.0585,0.17983 -0.05028,0.21725 0.0082,0.0374 -0.04288,0.12586 -0.113559,0.19654 -0.187234,0.18724 -0.157379,0.42614 0.06199,0.49604 0.141213,0.045 -0.105223,0.13469 -0.9525,0.34668 -0.62865,0.15728 -1.23825,0.2838 -1.354666,0.28115 -0.116417,-0.003 -0.5454787,-0.11943 -0.9534706,-0.25951 z m 0.9534706,-0.19248 v -0.29121 l -0.7408337,-0.22492 c -0.9633191,-0.29246 -0.9101667,-0.29466 -0.9101667,0.0377 v 0.28868 l 0.8043334,0.234 c 0.4423833,0.1287 0.813858,0.23692 0.8255,0.24049 0.01164,0.004 0.02117,-0.12455 0.02117,-0.28471 z m 0.931333,0.0798 c 0.973015,-0.23982 1.079341,-0.28832 1.122064,-0.51181 0.049,-0.25634 0.0269,-0.25659 -1.079731,-0.012 l -0.846666,0.18716 -0.0271,0.28159 c -0.02296,0.23855 -0.0035,0.27463 0.127,0.23612 0.08475,-0.025 0.401747,-0.1065 0.70443,-0.1811 z m -0.439136,-0.91045 -0.02653,-0.27516 -0.8889997,-0.18749 c -1.136873,-0.23977 -1.0987506,-0.24111 -1.0246349,0.036 0.056113,0.20982 0.1373253,0.24914 0.9451778,0.45763 0.4860848,0.12545 0.9147798,0.23171 0.9526548,0.23613 0.03787,0.004 0.05692,-0.11579 0.04233,-0.26713 z m 0.947136,0.0366 c 0.687391,-0.20069 0.808384,-0.26286 0.832196,-0.42764 0.06157,-0.42611 -0.01065,-0.43908 -0.86961,-0.15614 -0.80403,0.26484 -0.809253,0.26835 -0.809253,0.54443 0,0.15284 0.0095,0.27705 0.02117,0.27603 0.01164,-0.001 0.383117,-0.10752 0.8255,-0.23668 z m -1.27,-0.88601 c 0,-0.27638 -0.0044,-0.27934 -0.8216277,-0.54852 -0.6223637,-0.205 -0.8376527,-0.24541 -0.8877036,-0.16662 -0.098977,0.1558 -0.082052,0.36854 0.037165,0.46715 0.089315,0.0739 1.4141913,0.50217 1.6086663,0.52003 0.03492,0.003 0.0635,-0.11921 0.0635,-0.27204 z m 1.227667,-0.006 c 0.718995,-0.18047 0.763571,-0.20474 0.789837,-0.43009 0.02475,-0.21232 0.0059,-0.23351 -0.169333,-0.19088 -0.108444,0.0264 -0.549596,0.11485 -0.980338,0.19661 l -0.783166,0.14864 v 0.28153 c 0,0.24974 0.02151,0.27611 0.1905,0.2335 0.104775,-0.0264 0.5334,-0.13411 0.9525,-0.23931 z"
       style="fill:#000000;stroke-width:0.08466667" />
    <path
       style="fill:#b72e2e;stroke-width:0.25081891;fill-opacity:1"
       d="m 5.2810927,293.5196 c -1.4025681,-0.48158 -2.2940605,-0.93489 -2.4643565,-1.25308 -0.3541527,-0.66175 -0.04677,-2.46756 0.4200227,-2.46756 0.4943037,0 0.4426527,-0.87898 -0.08251,-1.40413 -0.2401817,-0.24025 -0.3240397,-0.47425 -0.1863537,-0.52014 0.137687,-0.0459 0.2117007,-0.56929 0.1644737,-1.16308 -0.05478,-0.68873 0.0354,-1.17822 0.249057,-1.35196 0.18421,-0.1499 1.9715158,-0.49425 3.9717969,-0.76546 l 3.6368712,-0.49313 2.006551,0.59308 c 2.898418,0.85667 2.840693,0.82877 2.320072,1.12104 -0.241408,0.13538 -0.438931,0.48234 -0.438931,0.77065 0,0.28824 0.197535,0.67419 0.438931,0.85744 0.241409,0.18338 0.317398,0.33677 0.16886,0.34115 -0.156269,0.006 -0.223753,0.32377 -0.16009,0.75738 0.06049,0.41216 0.02311,0.94827 -0.08327,1.19137 -0.106292,0.24321 -0.173302,0.53273 -0.148951,0.64359 0.02429,0.11079 -0.127029,0.37285 -0.33641,0.58223 -0.554667,0.55469 -0.466225,1.26241 0.183641,1.46948 0.418333,0.13331 -0.311716,0.39901 -2.821711,1.02702 -1.86233,0.46593 -3.6682251,0.84074 -4.0130988,0.83289 -0.3448767,-0.009 -1.6159411,-0.35381 -2.8245875,-0.76878 z m 2.8245875,-0.57021 V 292.0867 L 5.9110144,291.42039 C 3.0572532,290.554 3.2147129,290.54748 3.2147129,291.53207 v 0.8552 l 2.3827778,0.69321 c 1.3105281,0.38126 2.4109945,0.70185 2.4454835,0.71243 0.03448,0.0118 0.06271,-0.36897 0.06271,-0.84343 z m 2.7590048,0.2364 c 2.882486,-0.71045 3.197469,-0.85413 3.324033,-1.5162 0.145159,-0.75939 0.07969,-0.76013 -3.198624,-0.0356 l -2.5081861,0.55445 -0.08028,0.83419 c -0.06802,0.70669 -0.01037,0.81357 0.3762277,0.69949 0.251066,-0.0741 1.1901467,-0.3155 2.0868234,-0.5365 z m -1.3009077,-2.69714 -0.07859,-0.81514 -2.6335955,-0.55543 c -3.3679029,-0.7103 -3.2549679,-0.71427 -3.0354052,0.10665 0.16623,0.62157 0.4068157,0.73806 2.8000195,1.35569 1.4399901,0.37164 2.7099675,0.68643 2.8221695,0.69952 0.1121867,0.0118 0.1686217,-0.34302 0.1253997,-0.79135 z m 2.8058197,0.10842 c 2.036347,-0.59453 2.39478,-0.7787 2.465321,-1.26685 0.182397,-1.26232 -0.03155,-1.30074 -2.576157,-0.46255 -2.3818787,0.78457 -2.3973517,0.79496 -2.3973517,1.61283 0,0.45278 0.02814,0.82074 0.06271,0.81772 0.03448,-0.003 1.1349567,-0.31852 2.4454827,-0.70115 z m -3.7622811,-2.62474 c 0,-0.81875 -0.01303,-0.82752 -2.4340105,-1.62495 -1.8437071,-0.6073 -2.4814848,-0.72701 -2.6297575,-0.4936 -0.293212,0.46155 -0.243073,1.09177 0.1100987,1.3839 0.264589,0.21892 4.1894379,1.48764 4.7655553,1.54055 0.103448,0.009 0.188114,-0.35315 0.188114,-0.8059 z m 3.6368731,-0.0178 c 2.129971,-0.53463 2.262024,-0.60653 2.339835,-1.27411 0.07332,-0.62899 0.01748,-0.69176 -0.501637,-0.56547 -0.321257,0.0782 -1.628138,0.34023 -2.904179,0.58244 l -2.3200721,0.44034 v 0.83401 c 0,0.73983 0.06372,0.81795 0.5643427,0.69173 0.3103877,-0.0782 1.5801584,-0.3973 2.8217104,-0.70894 z"
       id="path4035"
       inkscape:connector-curvature="0" />
    <text
       xml:space="preserve"
       style="font-style:normal;font-weight:normal;font-size:5.65010691px;line-height:1.25;font-family:sans-serif;letter-spacing:0px;word-spacing:0px;fill:#ffffff;fill-opacity:1;stroke:none;stroke-width:0.14125265;"
       x="20.884108"
       y="227.38353"
       id="text4039"
       transform="scale(0.78095068,1.2804906)"><tspan
         sodipodi:role="line"
         id="tspan4037"
         x="20.884108"
         y="227.38353"
         style="font-style:normal;font-variant:normal;font-weight:bold;font-stretch:normal;font-family:sans-serif;-inkscape-font-specification:'sans-serif Bold';stroke-width:0.14125265;fill:#ffffff;">Gigi e Mateus</tspan></text>
  </g>
</svg>
